HIERARCHY
ROOT Hips
{
	OFFSET 0.000000 0.000000 0.000000
	CHANNELS 6 Xposition Yposition Zposition Zrotation Yrotation Xrotation 
	JOINT LHipJoint
	{
		OFFSET 0.000000 0.000000 0.000000
		CHANNELS 3 Zrotation Yrotation Xrotation
		JOINT LeftUpLeg
		{
			OFFSET 1.363060 -1.794630 0.839290
			CHANNELS 3 Zrotation Yrotation Xrotation
			JOINT LeftLeg
			{
				OFFSET 2.448110 -6.726130 0.000000
				CHANNELS 3 Zrotation Yrotation Xrotation
				JOINT LeftFoot
				{
					OFFSET 2.562200 -7.039590 0.000000
					CHANNELS 3 Zrotation Yrotation Xrotation
					JOINT LeftToeBase
					{
						OFFSET 0.157640 -0.433110 2.322550
						CHANNELS 3 Zrotation Yrotation Xrotation
						End Site
						{
							OFFSET 0.000000 0.000000 0.000000
						}
					}
				}
			}
		}
	}
	JOINT RHipJoint
	{
		OFFSET 0.000000 0.000000 0.000000
		CHANNELS 3 Zrotation Yrotation Xrotation
		JOINT RightUpLeg
		{
			OFFSET -1.305520 -1.794630 0.839290
			CHANNELS 3 Zrotation Yrotation Xrotation
			JOINT RightLeg
			{
				OFFSET -2.542530 -6.985550 0.000000
				CHANNELS 3 Zrotation Yrotation Xrotation
				JOINT RightFoot
				{
					OFFSET -2.568260 -7.056230 0.000000
					CHANNELS 3 Zrotation Yrotation Xrotation
					JOINT RightToeBase
					{
						OFFSET -0.164730 -0.452590 2.363150
						CHANNELS 3 Zrotation Yrotation Xrotation
						End Site
						{
							OFFSET 0.000000 0.000000 0.000000
						}
					}
				}
			}
		}
	}
	JOINT LowerBack
	{
		OFFSET 0.000000 0.000000 0.000000
		CHANNELS 3 Zrotation Yrotation Xrotation
		JOINT Spine
		{
			OFFSET 0.028270 2.035590 -0.193380
			CHANNELS 3 Zrotation Yrotation Xrotation
			JOINT Spine1
			{
				OFFSET 0.056720 2.048850 -0.042750
				CHANNELS 3 Zrotation Yrotation Xrotation
				JOINT Neck
				{
					OFFSET 0.000000 0.000000 0.000000
					CHANNELS 3 Zrotation Yrotation Xrotation
					JOINT Neck1
					{
						OFFSET -0.054170 1.746240 0.172020
						CHANNELS 3 Zrotation Yrotation Xrotation
						JOINT Head
						{
							OFFSET 0.104070 1.761360 -0.123970
							CHANNELS 3 Zrotation Yrotation Xrotation
							End Site
							{
								OFFSET 0.000000 0.000000 0.000000
							}
						}
					}
				}
				JOINT LeftShoulder
				{
					OFFSET 0.000000 0.000000 0.000000
					CHANNELS 3 Zrotation Yrotation Xrotation
					JOINT LeftArm
					{
						OFFSET 3.362410 1.200890 -0.311210
						CHANNELS 3 Zrotation Yrotation Xrotation
						JOINT LeftForeArm
						{
							OFFSET 4.983000 -0.000000 -0.000000
							CHANNELS 3 Zrotation Yrotation Xrotation
							JOINT LeftHand
							{
								OFFSET 3.483560 -0.000000 -0.000000
								CHANNELS 3 Zrotation Yrotation Xrotation
								JOINT LeftFingerBase
								{
									OFFSET 0.000000 0.000000 0.000000
									CHANNELS 3 Zrotation Yrotation Xrotation
									JOINT LeftHandIndex1
									{
										OFFSET 0.715260 -0.000000 -0.000000
										CHANNELS 3 Zrotation Yrotation Xrotation
										End Site
										{
											OFFSET 0.000000 0.000000 0.000000
										}
									}
								}
								JOINT LThumb
								{
									OFFSET 0.000000 0.000000 0.000000
									CHANNELS 3 Zrotation Yrotation Xrotation
									End Site
									{
										OFFSET 0.000000 0.000000 0.000000
									}
								}
							}
						}
					}
				}
				JOINT RightShoulder
				{
					OFFSET 0.000000 0.000000 0.000000
					CHANNELS 3 Zrotation Yrotation Xrotation
					JOINT RightArm
					{
						OFFSET -3.136600 1.374050 -0.404650
						CHANNELS 3 Zrotation Yrotation Xrotation
						JOINT RightForeArm
						{
							OFFSET -5.241900 -0.000000 -0.000000
							CHANNELS 3 Zrotation Yrotation Xrotation
							JOINT RightHand
							{
								OFFSET -3.444170 -0.000000 -0.000000
								CHANNELS 3 Zrotation Yrotation Xrotation
								JOINT RightFingerBase
								{
									OFFSET 0.000000 0.000000 0.000000
									CHANNELS 3 Zrotation Yrotation Xrotation
									JOINT RightHandIndex1
									{
										OFFSET -0.622530 -0.000000 -0.000000
										CHANNELS 3 Zrotation Yrotation Xrotation
										End Site
										{
											OFFSET 0.000000 0.000000 0.000000
										}
									}
								}
								JOINT RThumb
								{
									OFFSET 0.000000 0.000000 0.000000
									CHANNELS 3 Zrotation Yrotation Xrotation
									End Site
									{
										OFFSET 0.000000 0.000000 0.000000
									}
								}
							}
						}
					}
				}
			}
		}
	}
}
MOTION
Frames: 6
Frame Time: 0.008333
10.136518 17.733459 -0.136521 94.038196 -88.706724 -93.824957 -5.947886 -4.126955 -0.591139 -1.954558 2.796642 -10.789055 2.039621 12.361167 30.418547 -10.690753 25.397058 -1.326329 3.219800 -11.042600 -32.423800 4.812886 4.188941 -1.557024 2.002647 1.822888 -11.597024 -3.158187 -14.042336 37.270943 6.201799 -18.652031 -5.661681 -0.273100 3.361500 -9.287000 -0.091789 0.548087 -5.086251 -0.292593 0.832120 0.092398 -1.923974 0.291021 9.444273 -3.335156 -0.101411 -5.941307 4.031405 -2.435483 30.848729 1.058900 -1.114000 10.147900 -7.849924 -7.563678 1.429687 -71.361302 -2.442708 33.888274 39.001418 -45.370858 -20.962588 1.023954 0.759141 18.956967 40.484845 -29.607821 -23.411300 -7.125000 0.000000 0.000000 4.534300 -8.290200 -5.155700 10.104586 7.353158 1.102799 71.526212 0.237848 33.656238 -40.410924 46.638454 -20.906331 1.820352 -0.682708 0.625460 -47.748049 -11.447784 11.625100 7.125000 0.000000 0.000000 -20.924700 -44.259000 -0.401100 
10.132204 17.731910 -0.135857 93.201518 -88.523720 -92.998064 -5.955425 -4.142364 -0.578651 -2.145836 2.927664 -10.791859 2.018810 12.350561 30.365030 -10.648785 25.329447 -1.261664 3.247500 -11.085300 -32.568100 4.787447 4.171210 -1.557229 1.789564 1.674837 -11.633935 -3.188127 -14.044141 37.336689 6.059679 -18.303812 -5.492829 -0.240800 3.157600 -8.717900 -0.226160 0.564528 -5.161213 -0.338625 0.872786 0.083271 -1.945303 0.306690 9.435826 -3.395224 -0.129155 -5.649915 4.114005 -2.515587 30.752462 1.095700 -1.157900 10.038900 -7.858843 -7.579389 1.432768 -71.429731 -2.598079 33.869812 38.738869 -45.222678 -20.759124 1.031570 0.763758 18.951287 40.278121 -29.688343 -23.305800 -7.125000 0.000000 0.000000 4.396300 -8.305900 -4.999000 10.098292 7.345742 1.108442 71.453787 0.568720 31.084484 -40.389907 46.489414 -21.061626 1.941788 -0.509549 10.763978 -43.292983 -21.617913 19.661400 7.125000 0.000000 0.000000 -19.177600 -57.185300 5.870800 
10.131982 17.731356 -0.136853 93.698178 -88.521467 -93.500925 -5.954766 -4.140642 -0.574034 -2.146473 2.915411 -10.781416 2.014846 12.347068 30.357943 -10.661195 25.344264 -1.318111 3.205900 -11.021200 -32.351300 4.793531 4.171363 -1.555209 1.792555 1.744318 -11.615804 -3.188238 -14.049229 37.351215 6.052955 -18.287128 -5.526075 -0.220500 3.022600 -8.341600 -0.182780 0.604475 -5.104697 -0.361501 0.923102 0.049851 -2.019193 0.337760 9.321195 -3.314087 -0.173045 -5.504840 4.082420 -2.597296 30.753515 1.063900 -1.195800 10.013100 -7.861549 -7.582819 1.432056 -71.350023 -2.508852 33.955957 38.713244 -45.216534 -20.741623 1.035357 0.759737 18.942488 40.191942 -29.767263 -23.283500 -7.125000 0.000000 0.000000 4.326900 -8.355600 -4.922800 10.086898 7.347665 1.099317 71.551112 0.457149 31.004371 -40.438381 46.524153 -21.108031 1.950259 -0.497120 10.731798 -43.353090 -21.868815 19.916500 7.125000 0.000000 0.000000 -19.322300 -57.518500 6.074500 
10.133531 17.730140 -0.137406 93.559287 -88.556700 -93.367688 -5.960706 -4.132927 -0.568389 -2.097564 2.895883 -10.757319 2.013638 12.341893 30.344151 -10.650444 25.324282 -1.296077 3.197900 -11.008700 -32.309200 4.789960 4.175439 -1.559459 1.845596 1.761248 -11.617846 -3.191755 -14.057852 37.367528 6.110944 -18.430551 -5.568361 -0.261400 3.289300 -9.085200 -0.220093 0.530942 -5.111537 -0.286756 0.819177 0.045118 -1.833751 0.276530 9.314411 -3.440189 -0.085564 -5.531051 3.963108 -2.412196 30.784135 1.049500 -1.129300 10.027500 -7.841548 -7.579593 1.424748 -71.595151 -2.587627 33.777981 38.597339 -45.149887 -20.651432 1.033111 0.769028 18.943158 40.215421 -29.739385 -23.293200 -7.125000 0.000000 0.000000 4.347700 -8.344800 -4.945900 10.111222 7.353895 1.107524 71.299588 0.417925 31.412944 -40.426811 46.526676 -21.082653 1.944045 -0.504613 9.911475 -43.796575 -21.106335 19.521600 7.125000 0.000000 0.000000 -19.690000 -56.655500 5.780800 
10.133531 17.729365 -0.137517 93.582376 -88.552574 -93.400169 -5.962016 -4.131852 -0.565563 -2.098907 2.903034 -10.747633 2.014052 12.343084 30.347363 -10.645470 25.315470 -1.294026 3.208300 -11.024900 -32.363900 4.787522 4.173920 -1.558855 1.845337 1.760183 -11.610915 -3.193835 -14.059195 37.371677 6.117220 -18.446651 -5.559335 -0.271100 3.349200 -9.252600 -0.214978 0.523986 -5.119908 -0.270055 0.806688 0.037697 -1.795640 0.269032 9.296326 -3.494145 -0.059967 -5.477893 3.934132 -2.364364 30.792718 1.051100 -1.116200 10.018000 -7.837541 -7.582427 1.423659 -71.674618 -2.666521 33.755882 38.456996 -45.070989 -20.542428 1.033649 0.774853 18.931553 40.206152 -29.750764 -23.297900 -7.125000 0.000000 0.000000 4.338800 -8.361500 -4.936800 10.116945 7.355526 1.108743 71.221665 0.399865 31.256406 -40.445591 46.527859 -21.113849 1.957152 -0.484442 10.639614 -43.384612 -21.896237 19.971200 7.125000 0.000000 0.000000 -19.377500 -57.575400 6.119600 
10.133863 17.728923 -0.137627 93.789076 -88.566556 -93.615600 -5.962013 -4.129255 -0.564620 -2.082582 2.902922 -10.740589 2.016912 12.344504 30.351668 -10.651644 25.328721 -1.289536 3.235000 -11.066100 -32.503100 4.787943 4.174479 -1.558488 1.864411 1.774582 -11.600547 -3.193140 -14.061118 37.372931 6.127370 -18.472612 -5.566184 -0.280100 3.403900 -9.405200 -0.184559 0.522603 -5.126410 -0.255055 0.799599 0.034912 -1.775373 0.265688 9.291623 -3.530922 -0.035304 -5.472850 3.906401 -2.317284 30.816686 1.050500 -1.100700 10.025700 -7.835018 -7.583866 1.423243 -71.726885 -2.747369 33.748773 38.329195 -44.998388 -20.444034 1.033192 0.780632 18.922443 40.234712 -29.754147 -23.326700 -7.125000 0.000000 0.000000 4.353000 -8.384100 -4.954500 10.122070 7.358001 1.109377 71.167868 0.368573 31.281423 -40.461870 46.535811 -21.125323 1.956754 -0.482388 10.596445 -43.344002 -21.867765 19.923400 7.125000 0.000000 0.000000 -19.317600 -57.532400 6.079500 
